<?xml version="1.0" standalone="no"?>
<!DOCTYPE svg PUBLIC "-//W3C//DTD SVG 20010904//EN"
 "http://www.w3.org/TR/2001/REC-SVG-20010904/DTD/svg10.dtd">
<svg version="1.0" xmlns="http://www.w3.org/2000/svg"
 width="340.000000pt" height="256.000000pt" viewBox="0 0 340.000000 256.000000"
 preserveAspectRatio="xMidYMid meet">
<g transform="translate(0.000000,256.000000) scale(0.100000,-0.100000)"
fill="#d0112b" stroke="none">
<path d="M1434 2465 c57 -142 73 -244 56 -342 -23 -136 -68 -212 -215 -363
-166 -171 -230 -307 -230 -490 0 -76 5 -108 24 -158 59 -155 215 -252 406
-252 116 0 187 50 215 149 23 82 4 225 -45 343 -53 127 -46 205 37 407 46 112
51 134 51 196 -1 83 -26 161 -84 258 -56 94 -236 305 -215 252z"/>
<path d="M1953 1904 c-76 -78 -154 -194 -180 -267 -29 -85 -23 -181 21 -317
78 -244 75 -308 -30 -500 -27 -49 -27 -180 0 -234 31 -62 108 -132 168 -152
172 -57 391 37 463 199 23 51 29 80 33 162 10 238 -38 324 -310 560 -59 51
-85 82 -108 129 -56 114 -58 260 -5 415 13 39 21 71 18 71 -3 0 -34 -30 -70
-66z"/>
<path d="M984 904 c-14 -54 3 -217 31 -293 91 -254 221 -390 447 -467 311
-106 617 -50 773 140 21 26 35 49 32 52 -3 4 -34 -4 -69 -15 -175 -60 -373
-22 -498 95 -63 59 -92 107 -119 201 -28 95 -38 103 -115 103 -138 0 -318 69
-416 159 -30 28 -55 51 -57 51 -1 0 -6 -12 -9 -26z"/>
</g>
</svg>
